<svg width="45" height="45" viewBox="0 0 45 45" fill="none" xmlns="http://www.w3.org/2000/svg">
<g clip-path="url(#clip0_133_38)">
<path d="M22.5 45C34.9264 45 45 34.9264 45 22.5C45 10.0736 34.9264 0 22.5 0C10.0736 0 0 10.0736 0 22.5C0 34.9264 10.0736 45 22.5 45Z" fill="black"/>
<g filter="url(#filter0_f_133_38)">
<g filter="url(#filter1_d_133_38)">
<mask id="path-2-inside-1_133_38" fill="white">
<path d="M16.0547 26.7598L7.65625 22.541V21.9648L16.0547 17.2578V18.7227L9.78516 22.1992V22.2383L16.0547 25.3047V26.7598ZM26.6309 13.9961L19.9121 30.3242H18.418L25.1172 13.9961H26.6309ZM37.5391 22.541L29.1406 26.7598V25.3047L35.4297 22.2578V22.1992L29.1406 18.7227V17.2578L37.5391 21.9648V22.541Z"/>
</mask>
<path d="M16.0547 26.7598L7.65625 22.541V21.9648L16.0547 17.2578V18.7227L9.78516 22.1992V22.2383L16.0547 25.3047V26.7598ZM26.6309 13.9961L19.9121 30.3242H18.418L25.1172 13.9961H26.6309ZM37.5391 22.541L29.1406 26.7598V25.3047L35.4297 22.2578V22.1992L29.1406 18.7227V17.2578L37.5391 21.9648V22.541Z" fill="white"/>
<path d="M16.0547 26.7598L-207.487 471.769L514.055 834.221V26.7598H16.0547ZM7.65625 22.541H-490.344V329.681L-215.885 467.55L7.65625 22.541ZM7.65625 21.9648L-235.821 -412.458L-490.344 -269.808V21.9648H7.65625ZM16.0547 17.2578H514.055V-832.733L-227.422 -417.165L16.0547 17.2578ZM16.0547 18.7227L257.556 454.247L514.055 312.017V18.7227H16.0547ZM9.78516 22.1992L-231.716 -413.325L-488.215 -271.095V22.1992H9.78516ZM9.78516 22.2383H-488.215V333.043L-209.016 469.597L9.78516 22.2383ZM16.0547 25.3047H514.055V-285.5L234.856 -422.054L16.0547 25.3047ZM26.6309 13.9961L487.166 203.5L770.065 -484.004L26.6309 -484.004V13.9961ZM19.9121 30.3242V528.324H353.505L480.447 219.828L19.9121 30.3242ZM18.418 30.3242L-442.311 -158.707L-724.191 528.324H18.418V30.3242ZM25.1172 13.9961V-484.004H-308.846L-435.612 -175.035L25.1172 13.9961ZM37.5391 22.541L261.08 467.551L535.539 329.682V22.541H37.5391ZM29.1406 26.7598H-468.859V834.219L252.681 471.769L29.1406 26.7598ZM29.1406 25.3047L-187.988 -422.869L-468.859 -286.794V25.3047H29.1406ZM35.4297 22.2578L252.558 470.431L533.43 334.356V22.2578H35.4297ZM35.4297 22.1992H533.43V-271.537L276.356 -413.643L35.4297 22.1992ZM29.1406 18.7227H-468.859V312.459L-211.785 454.565L29.1406 18.7227ZM29.1406 17.2578L272.616 -417.165L-468.859 -832.731L-468.859 17.2578H29.1406ZM37.5391 21.9648H535.539V-269.808L281.015 -412.458L37.5391 21.9648ZM16.0547 26.7598L239.596 -418.249L231.198 -422.468L7.65625 22.541L-215.885 467.55L-207.487 471.769L16.0547 26.7598ZM7.65625 22.541H505.656V21.9648H7.65625H-490.344V22.541H7.65625ZM7.65625 21.9648L251.133 456.387L259.531 451.68L16.0547 17.2578L-227.422 -417.165L-235.821 -412.458L7.65625 21.9648ZM16.0547 17.2578H-481.945V18.7227H16.0547H514.055V17.2578H16.0547ZM16.0547 18.7227L-225.446 -416.801L-231.716 -413.325L9.78516 22.1992L251.286 457.723L257.556 454.247L16.0547 18.7227ZM9.78516 22.1992H-488.215V22.2383H9.78516H507.785V22.1992H9.78516ZM9.78516 22.2383L-209.016 469.597L-202.746 472.664L16.0547 25.3047L234.856 -422.054L228.586 -425.121L9.78516 22.2383ZM16.0547 25.3047H-481.945V26.7598H16.0547H514.055V25.3047H16.0547ZM26.6309 13.9961L-433.904 -175.508L-440.623 -159.18L19.9121 30.3242L480.447 219.828L487.166 203.5L26.6309 13.9961ZM19.9121 30.3242V-467.676H18.418V30.3242V528.324H19.9121V30.3242ZM18.418 30.3242L479.147 219.355L485.846 203.027L25.1172 13.9961L-435.612 -175.035L-442.311 -158.707L18.418 30.3242ZM25.1172 13.9961V511.996H26.6309V13.9961V-484.004H25.1172V13.9961ZM37.5391 22.541L-186.002 -422.469L-194.4 -418.25L29.1406 26.7598L252.681 471.769L261.08 467.551L37.5391 22.541ZM29.1406 26.7598H527.141V25.3047H29.1406H-468.859V26.7598H29.1406ZM29.1406 25.3047L246.269 473.478L252.558 470.431L35.4297 22.2578L-181.698 -425.916L-187.988 -422.869L29.1406 25.3047ZM35.4297 22.2578H533.43V22.1992H35.4297H-462.57V22.2578H35.4297ZM35.4297 22.1992L276.356 -413.643L270.066 -417.12L29.1406 18.7227L-211.785 454.565L-205.496 458.042L35.4297 22.1992ZM29.1406 18.7227H527.141V17.2578H29.1406H-468.859V18.7227H29.1406ZM29.1406 17.2578L-214.335 451.681L-205.937 456.388L37.5391 21.9648L281.015 -412.458L272.616 -417.165L29.1406 17.2578ZM37.5391 21.9648H-460.461V22.541H37.5391H535.539V21.9648H37.5391Z" fill="white" mask="url(#path-2-inside-1_133_38)"/>
</g>
</g>
</g>
<defs>
<filter id="filter0_f_133_38" x="6.75625" y="13.0961" width="31.6828" height="18.1281" filterUnits="userSpaceOnUse" color-interpolation-filters="sRGB">
<feFlood flood-opacity="0" result="BackgroundImageFix"/>
<feBlend mode="normal" in="SourceGraphic" in2="BackgroundImageFix" result="shape"/>
<feGaussianBlur stdDeviation="0.45" result="effect1_foregroundBlur_133_38"/>
</filter>
<filter id="filter1_d_133_38" x="3.65625" y="13.9961" width="37.8828" height="24.3281" filterUnits="userSpaceOnUse" color-interpolation-filters="sRGB">
<feFlood flood-opacity="0" result="BackgroundImageFix"/>
<feColorMatrix in="SourceAlpha" type="matrix" values="0 0 0 0 0 0 0 0 0 0 0 0 0 0 0 0 0 0 127 0" result="hardAlpha"/>
<feOffset dy="4"/>
<feGaussianBlur stdDeviation="2"/>
<feComposite in2="hardAlpha" operator="out"/>
<feColorMatrix type="matrix" values="0 0 0 0 0 0 0 0 0 0 0 0 0 0 0 0 0 0 0.25 0"/>
<feBlend mode="normal" in2="BackgroundImageFix" result="effect1_dropShadow_133_38"/>
<feBlend mode="normal" in="SourceGraphic" in2="effect1_dropShadow_133_38" result="shape"/>
</filter>
<clipPath id="clip0_133_38">
<rect width="45" height="45" fill="white"/>
</clipPath>
</defs>
</svg>
