<svg width="39" height="26" viewBox="0 0 39 26" fill="none" xmlns="http://www.w3.org/2000/svg">
<g filter="url(#filter0_f_133_31)">
<g filter="url(#filter1_d_133_31)">
<mask id="path-1-inside-1_133_31" fill="white">
<path d="M13.0547 13.7598L4.65625 9.54099V8.96479L13.0547 4.25779V5.72269L6.78516 9.19919V9.23829L13.0547 12.3047V13.7598ZM23.6309 0.996094L16.9121 17.3242H15.418L22.1172 0.996094H23.6309ZM34.5391 9.54099L26.1406 13.7598V12.3047L32.4297 9.25779V9.19919L26.1406 5.72269V4.25779L34.5391 8.96479V9.54099Z"/>
</mask>
<path d="M13.0547 13.7598L4.65625 9.54099V8.96479L13.0547 4.25779V5.72269L6.78516 9.19919V9.23829L13.0547 12.3047V13.7598ZM23.6309 0.996094L16.9121 17.3242H15.418L22.1172 0.996094H23.6309ZM34.5391 9.54099L26.1406 13.7598V12.3047L32.4297 9.25779V9.19919L26.1406 5.72269V4.25779L34.5391 8.96479V9.54099Z" fill="black"/>
<path d="M13.0547 13.7598L-210.487 458.769L511.055 821.221V13.7598H13.0547ZM4.65625 9.54099H-493.344V316.681L-218.885 454.55L4.65625 9.54099ZM4.65625 8.96479L-238.821 -425.458L-493.344 -282.808V8.96479H4.65625ZM13.0547 4.25779H511.055V-845.733L-230.422 -430.165L13.0547 4.25779ZM13.0547 5.72269L254.556 441.247L511.055 299.017V5.72269H13.0547ZM6.78516 9.19919L-234.716 -426.325L-491.215 -284.095V9.19919H6.78516ZM6.78516 9.23829H-491.215V320.043L-212.016 456.597L6.78516 9.23829ZM13.0547 12.3047H511.055V-298.5L231.856 -435.054L13.0547 12.3047ZM23.6309 0.996094L484.166 190.5L767.065 -497.004L23.6309 -497.004V0.996094ZM16.9121 17.3242V515.324H350.505L477.447 206.828L16.9121 17.3242ZM15.418 17.3242L-445.311 -171.707L-727.191 515.324H15.418V17.3242ZM22.1172 0.996094V-497.004H-311.846L-438.612 -188.035L22.1172 0.996094ZM34.5391 9.54099L258.08 454.551L532.539 316.682V9.54099H34.5391ZM26.1406 13.7598H-471.859V821.219L249.681 458.769L26.1406 13.7598ZM26.1406 12.3047L-190.988 -435.869L-471.859 -299.794V12.3047H26.1406ZM32.4297 9.25779L249.558 457.431L530.43 321.356V9.25779H32.4297ZM32.4297 9.19919H530.43V-284.537L273.356 -426.643L32.4297 9.19919ZM26.1406 5.72269H-471.859V299.459L-214.785 441.565L26.1406 5.72269ZM26.1406 4.25779L269.616 -430.165L-471.859 -845.731L-471.859 4.25779H26.1406ZM34.5391 8.96479H532.539V-282.808L278.015 -425.458L34.5391 8.96479ZM13.0547 13.7598L236.596 -431.249L228.198 -435.468L4.65625 9.54099L-218.885 454.55L-210.487 458.769L13.0547 13.7598ZM4.65625 9.54099H502.656V8.96479H4.65625H-493.344V9.54099H4.65625ZM4.65625 8.96479L248.133 443.387L256.531 438.68L13.0547 4.25779L-230.422 -430.165L-238.821 -425.458L4.65625 8.96479ZM13.0547 4.25779H-484.945V5.72269H13.0547H511.055V4.25779H13.0547ZM13.0547 5.72269L-228.446 -429.801L-234.716 -426.325L6.78516 9.19919L248.286 444.723L254.556 441.247L13.0547 5.72269ZM6.78516 9.19919H-491.215V9.23829H6.78516H504.785V9.19919H6.78516ZM6.78516 9.23829L-212.016 456.597L-205.746 459.664L13.0547 12.3047L231.856 -435.054L225.586 -438.121L6.78516 9.23829ZM13.0547 12.3047H-484.945V13.7598H13.0547H511.055V12.3047H13.0547ZM23.6309 0.996094L-436.904 -188.508L-443.623 -172.18L16.9121 17.3242L477.447 206.828L484.166 190.5L23.6309 0.996094ZM16.9121 17.3242V-480.676H15.418V17.3242V515.324H16.9121V17.3242ZM15.418 17.3242L476.147 206.355L482.846 190.027L22.1172 0.996094L-438.612 -188.035L-445.311 -171.707L15.418 17.3242ZM22.1172 0.996094V498.996H23.6309V0.996094V-497.004H22.1172V0.996094ZM34.5391 9.54099L-189.002 -435.469L-197.4 -431.25L26.1406 13.7598L249.681 458.769L258.08 454.551L34.5391 9.54099ZM26.1406 13.7598H524.141V12.3047H26.1406H-471.859V13.7598H26.1406ZM26.1406 12.3047L243.269 460.478L249.558 457.431L32.4297 9.25779L-184.698 -438.916L-190.988 -435.869L26.1406 12.3047ZM32.4297 9.25779H530.43V9.19919H32.4297H-465.57V9.25779H32.4297ZM32.4297 9.19919L273.356 -426.643L267.066 -430.12L26.1406 5.72269L-214.785 441.565L-208.496 445.042L32.4297 9.19919ZM26.1406 5.72269H524.141V4.25779H26.1406H-471.859V5.72269H26.1406ZM26.1406 4.25779L-217.335 438.681L-208.937 443.388L34.5391 8.96479L278.015 -425.458L269.616 -430.165L26.1406 4.25779ZM34.5391 8.96479H-463.461V9.54099H34.5391H532.539V8.96479H34.5391Z" fill="black" mask="url(#path-1-inside-1_133_31)"/>
</g>
</g>
<defs>
<filter id="filter0_f_133_31" x="3.75625" y="0.0960938" width="31.6828" height="18.1281" filterUnits="userSpaceOnUse" color-interpolation-filters="sRGB">
<feFlood flood-opacity="0" result="BackgroundImageFix"/>
<feBlend mode="normal" in="SourceGraphic" in2="BackgroundImageFix" result="shape"/>
<feGaussianBlur stdDeviation="0.45" result="effect1_foregroundBlur_133_31"/>
</filter>
<filter id="filter1_d_133_31" x="0.65625" y="0.996094" width="37.8828" height="24.3281" filterUnits="userSpaceOnUse" color-interpolation-filters="sRGB">
<feFlood flood-opacity="0" result="BackgroundImageFix"/>
<feColorMatrix in="SourceAlpha" type="matrix" values="0 0 0 0 0 0 0 0 0 0 0 0 0 0 0 0 0 0 127 0" result="hardAlpha"/>
<feOffset dy="4"/>
<feGaussianBlur stdDeviation="2"/>
<feComposite in2="hardAlpha" operator="out"/>
<feColorMatrix type="matrix" values="0 0 0 0 0 0 0 0 0 0 0 0 0 0 0 0 0 0 0.25 0"/>
<feBlend mode="normal" in2="BackgroundImageFix" result="effect1_dropShadow_133_31"/>
<feBlend mode="normal" in="SourceGraphic" in2="effect1_dropShadow_133_31" result="shape"/>
</filter>
</defs>
</svg>
